<svg xmlns="http://www.w3.org/2000/svg" aria-hidden="true" style="position:absolute;width:0;height:0;overflow:hidden">
  <defs>
    <symbol id="icon-close" viewBox="0 0 32 32">
      <path d="M21.421 11.993a.992.992 0 0 0 .305-.71 1.005 1.005 0 0 0-.62-.935 1.01 1.01 0 0 0-.773.006.996.996 0 0 0-.325.224L16 14.585l-4.007-4.007a1.013 1.013 0 0 0-.714-.318.993.993 0 0 0-.725.293.992.992 0 0 0-.293.725 1.001 1.001 0 0 0 .318.714L14.583 16l-4.007 4.007a.996.996 0 0 0 .025 1.388 1.002 1.002 0 0 0 1.388.025l4.009-4.007 4.007 4.008a.996.996 0 0 0 1.388-.025 1.002 1.002 0 0 0 .025-1.388L17.414 16l4.005-4.007z"/>
    </symbol>
    <symbol id="icon-menu" viewBox="0 0 32 32">
      <path fill="none" stroke="#fff" stroke-linecap="round" stroke-width="3.429" d="M5.333 9.333h4m17.334 0h-12m12 13.334h-4m-17.334 0h12M5.333 16h21.333" style="stroke:var(--color1, #fff)"/>
    </symbol>
    <symbol id="icon-mail" viewBox="0 0 30 30">
      <path d="M29.9897 24.9028C30.1034 24.5955 17.0454 14.7357 17.0454 14.7357C15.4106 13.5293 14.5508 13.5103 12.9342 14.7357C12.9342 14.7357 -0.104767 24.5875 0.00497894 24.8906L0.00234222 24.8928C0.00368988 24.8955 0.00585785 24.8973 0.00767426 24.8997C0.118255 25.2011 0.279106 25.4815 0.483397 25.7292C0.569706 25.8338 0.673709 25.9215 0.773729 26.0126L0.768866 26.0164C0.776834 26.0234 0.78744 26.0267 0.795409 26.0338C1.21933 26.412 1.75394 26.6569 2.34785 26.7268C2.35717 26.7279 2.36467 26.7328 2.37398 26.7339H2.40984C2.50014 26.7425 2.58598 26.7642 2.67844 26.7642H27.3301C28.5439 26.7642 29.5724 26.0008 29.9809 24.9307C29.9858 24.9228 29.9933 24.917 29.9977 24.9088L29.9897 24.9028Z" fill="#96A9B2" />
      <path d="M15.0078 13.604L0.0712509 24.8064V8.93635C0.0712509 7.38947 1.32498 6.13574 2.87186 6.13574H27.1437C28.6906 6.13574 29.9443 7.38947 29.9443 8.93635V24.8064L15.0078 13.604Z" fill="#B9C5C6" />
      <path d="M0.245453 7.96267L12.9981 17.9792C14.6077 19.167 15.4542 19.1857 17.0459 17.9792L29.7785 7.97855C29.5576 7.57812 29.2269 7.26177 28.8487 7.00952L29.0238 6.8723C28.5964 6.48317 28.05 6.23093 27.4435 6.16577L2.57309 6.16665C1.96829 6.23093 1.42102 6.48405 0.994457 6.8723L1.1683 7.00782C0.794476 7.25655 0.46682 7.56745 0.245453 7.96267Z" fill="black" />
      <path d="M0.241288 7.98363C0.129316 8.28627 12.9861 17.9941 12.9861 17.9941C14.5957 19.1818 15.4423 19.2006 17.034 17.9941C17.034 17.9941 29.872 8.29412 29.7639 7.99564L29.7666 7.99348C29.7653 7.99084 29.7631 7.98914 29.7613 7.98674C29.6525 7.68996 29.4941 7.4138 29.2929 7.17C29.208 7.06693 29.1056 6.98068 29.0071 6.89092L29.0119 6.88723C29.0041 6.88025 28.9936 6.87697 28.9858 6.87C28.5684 6.4977 28.042 6.25652 27.4573 6.18768C27.4482 6.18656 27.4407 6.18182 27.4316 6.1807H27.3963C27.3074 6.17221 27.2229 6.15088 27.1318 6.15088H2.85996C1.66476 6.15088 0.652148 6.90252 0.250019 7.95609C0.245214 7.96395 0.237831 7.96963 0.233437 7.97766L0.241288 7.98363Z" fill="#E8F6FF" />
      <path d="M17.0743 9.06112H14.8107C14.715 9.06112 14.6233 9.09912 14.5557 9.16675C14.488 9.23439 14.45 9.32612 14.45 9.42177V10.6945C14.45 10.7902 14.488 10.8819 14.5557 10.9496C14.6233 11.0172 14.715 11.0552 14.8107 11.0552H16.6514C16.7471 11.0552 16.8388 11.0932 16.9064 11.1608C16.9741 11.2284 17.0121 11.3202 17.0121 11.4158V12.0965C17.0121 12.1921 16.9741 12.2838 16.9064 12.3515C16.8388 12.4191 16.7471 12.4571 16.6514 12.4571H14.8107C14.715 12.4571 14.6233 12.4951 14.5557 12.5627C14.488 12.6304 14.45 12.7221 14.45 12.8177V14.1993C14.45 14.2949 14.488 14.3866 14.5557 14.4543C14.6233 14.5219 14.715 14.5599 14.8107 14.5599H17.2315C17.3272 14.5599 17.4189 14.5979 17.4866 14.6655C17.5542 14.7332 17.5922 14.8249 17.5922 14.9206V15.6495C17.5922 15.7452 17.5542 15.8369 17.4866 15.9045C17.4189 15.9722 17.3272 16.0102 17.2315 16.0102H12.7925C12.6968 16.0102 12.6051 15.9722 12.5375 15.9045C12.4698 15.8369 12.4318 15.7452 12.4318 15.6495V7.99565C12.4318 7.90001 12.4698 7.80827 12.5375 7.74064C12.6051 7.67301 12.6968 7.63501 12.7925 7.63501H17.1759C17.3955 7.63501 17.5642 7.82966 17.5328 8.0471L17.4313 8.75187C17.4189 8.83773 17.376 8.91626 17.3104 8.97306C17.2449 9.02986 17.161 9.06112 17.0743 9.06112Z" fill="#597B91" />
    </symbol>
  </defs>
</svg>
